<svg width="41" height="40" viewBox="0 0 41 40" fill="none" xmlns="http://www.w3.org/2000/svg">
<rect width="40.9" height="38.2318" transform="translate(0 0.923584)" fill="#FBFBFB"/>
<path d="M29.2897 12.5354C28.7789 12.0244 28.1725 11.6191 27.5051 11.3425C26.8376 11.0659 26.1222 10.9236 25.3997 10.9236C24.6772 10.9236 23.9618 11.0659 23.2943 11.3425C22.6269 11.6191 22.0205 12.0244 21.5097 12.5354L20.4497 13.5954L19.3897 12.5354C18.358 11.5037 16.9587 10.9241 15.4997 10.9241C14.0407 10.9241 12.6414 11.5037 11.6097 12.5354C10.578 13.5671 9.99841 14.9664 9.99841 16.4254C9.99841 17.8844 10.578 19.2837 11.6097 20.3154L12.6697 21.3754L20.4497 29.1554L28.2297 21.3754L29.2897 20.3154C29.8007 19.8047 30.2061 19.1982 30.4826 18.5308C30.7592 17.8633 30.9015 17.1479 30.9015 16.4254C30.9015 15.7029 30.7592 14.9875 30.4826 14.3201C30.2061 13.6526 29.8007 13.0462 29.2897 12.5354Z" stroke="black" stroke-width="2" stroke-linecap="round" stroke-linejoin="round"/>
</svg>
