<svg width="25" height="25" viewBox="0 0 25 25" fill="none" xmlns="http://www.w3.org/2000/svg">
<g clip-path="url(#clip0_2129_1272)">
<path d="M21.0398 5.18604C20.5291 4.67505 19.9226 4.26969 19.2552 3.99313C18.5877 3.71657 17.8723 3.57422 17.1498 3.57422C16.4273 3.57422 15.7119 3.71657 15.0445 3.99313C14.377 4.26969 13.7706 4.67505 13.2598 5.18604L12.1998 6.24604L11.1398 5.18604C10.1081 4.15435 8.70886 3.57475 7.24983 3.57475C5.79079 3.57475 4.39152 4.15435 3.35983 5.18604C2.32813 6.21774 1.74854 7.61701 1.74854 9.07604C1.74854 10.5351 2.32813 11.9344 3.35983 12.966L4.41983 14.026L12.1998 21.806L19.9798 14.026L21.0398 12.966C21.5508 12.4553 21.9562 11.8489 22.2327 11.1814C22.5093 10.5139 22.6517 9.79853 22.6517 9.07604C22.6517 8.35356 22.5093 7.63815 22.2327 6.97069C21.9562 6.30323 21.5508 5.6968 21.0398 5.18604Z" fill="#F99DBC" stroke="#F99DBC" stroke-width="2" stroke-linecap="round" stroke-linejoin="round"/>
</g>
<defs>
<clipPath id="clip0_2129_1272">
<rect width="24" height="24" fill="white" transform="translate(0.199707 0.57605)"/>
</clipPath>
</defs>
</svg>
