<svg width="70" height="42" viewBox="0 0 70 42" fill="none" xmlns="http://www.w3.org/2000/svg">
<rect width="70" height="42" rx="4" fill="#F99DBC"/>
<path d="M18.2633 6.91016C18.5849 6.98633 18.8726 7.04557 19.1265 7.08789C19.3889 7.12174 19.609 7.14714 19.7867 7.16406C19.9983 7.18945 20.1845 7.19792 20.3453 7.18945C20.5484 7.18099 20.8023 7.15137 21.107 7.10059C21.4117 7.0498 21.7333 6.99902 22.0719 6.94824C22.4104 6.89746 22.7447 6.85514 23.0748 6.82129C23.4049 6.78743 23.6926 6.7832 23.9381 6.80859C24.1835 6.83398 24.4416 6.89323 24.7125 6.98633C24.9833 7.07096 25.2372 7.18945 25.4742 7.3418C25.7112 7.48568 25.9143 7.66341 26.0836 7.875C26.2613 8.08659 26.3713 8.33203 26.4137 8.61133C26.456 8.88216 26.4306 9.17415 26.3375 9.4873C26.2444 9.79199 26.0963 10.0924 25.8931 10.3887C25.69 10.6764 25.4361 10.943 25.1314 11.1885C24.8267 11.4339 24.4882 11.6328 24.1158 11.7852C23.8196 11.8952 23.498 11.9798 23.151 12.0391C22.8547 12.0898 22.5077 12.1237 22.1099 12.1406C21.7206 12.1491 21.3059 12.1068 20.8658 12.0137C20.8066 12.2591 20.7727 12.4876 20.7642 12.6992C20.7642 12.9023 20.7727 13.0843 20.7896 13.2451C20.815 13.4313 20.8489 13.6006 20.8912 13.7529C20.942 13.9053 21.0054 14.083 21.0816 14.2861C21.1493 14.4554 21.2255 14.6628 21.3101 14.9082C21.4032 15.1452 21.5133 15.4118 21.6402 15.708C21.4879 15.708 21.3398 15.7122 21.1959 15.7207C21.052 15.7207 20.9208 15.7249 20.8023 15.7334C20.6669 15.7419 20.54 15.7503 20.4215 15.7588C20.286 15.7673 20.1337 15.7842 19.9644 15.8096C19.8206 15.8265 19.6386 15.8519 19.4185 15.8857C19.2069 15.9196 18.9657 15.9619 18.6949 16.0127C18.8726 15.7588 19.0123 15.526 19.1138 15.3145C19.2239 15.0944 19.3043 14.904 19.3551 14.7432C19.4143 14.557 19.4524 14.3877 19.4693 14.2354C19.4778 14.1084 19.4778 13.8841 19.4693 13.5625C19.4693 13.2409 19.4651 12.8685 19.4566 12.4453C19.4482 12.0221 19.4355 11.5778 19.4185 11.1123C19.4016 10.6468 19.3804 10.2109 19.3551 9.80469C19.3297 9.38997 19.3 9.03451 19.2662 8.73828C19.2408 8.44206 19.2154 8.2474 19.19 8.1543C19.1562 8.04427 19.0969 7.92578 19.0123 7.79883C18.9446 7.6888 18.8472 7.56185 18.7203 7.41797C18.6018 7.26562 18.4495 7.09635 18.2633 6.91016ZM20.8912 9.41113C20.8827 9.49577 20.8785 9.58464 20.8785 9.67773C20.8785 9.85547 20.8912 10.084 20.9166 10.3633C20.9758 10.5072 21.0478 10.6257 21.1324 10.7188C21.2255 10.8118 21.3228 10.8838 21.4244 10.9346C21.5344 10.9854 21.6444 11.0192 21.7545 11.0361C21.8645 11.0531 21.9745 11.0615 22.0846 11.0615C22.3385 11.0531 22.6051 10.9938 22.8844 10.8838C23.2568 10.723 23.5191 10.4945 23.6715 10.1982C23.8238 9.90202 23.9042 9.59733 23.9127 9.28418C23.9211 8.97103 23.8661 8.68327 23.7476 8.4209C23.6376 8.15853 23.5022 7.98079 23.3414 7.8877C23.206 7.82845 23.0325 7.80306 22.8209 7.81152C22.6347 7.81999 22.4019 7.86654 22.1226 7.95117C21.8433 8.03581 21.5006 8.18815 21.0943 8.4082C21.052 8.56055 21.0181 8.69596 20.9928 8.81445C20.9674 8.93294 20.9462 9.03874 20.9293 9.13184C20.9124 9.2334 20.8997 9.3265 20.8912 9.41113ZM27.5298 10.3252L29.8658 10.3506C29.7303 10.8669 29.6288 11.307 29.5611 11.6709C29.5018 12.0348 29.4637 12.3395 29.4468 12.585C29.413 12.8643 29.4045 13.1012 29.4214 13.2959C29.4468 13.4736 29.4891 13.6641 29.5484 13.8672C29.5992 14.0365 29.6753 14.2311 29.7769 14.4512C29.8785 14.6712 30.0139 14.8913 30.1831 15.1113C30.0816 15.0775 29.9716 15.0521 29.8531 15.0352C29.7346 15.0182 29.6245 15.0055 29.523 14.9971C29.4045 14.9886 29.286 14.9886 29.1675 14.9971C29.049 15.0055 28.9178 15.0182 28.774 15.0352C28.6555 15.0521 28.5116 15.0732 28.3423 15.0986C28.1731 15.124 27.9953 15.1579 27.8091 15.2002C27.9361 14.8193 28.0334 14.4893 28.1011 14.21C28.1773 13.9307 28.2323 13.6979 28.2662 13.5117C28.3 13.2917 28.3212 13.1139 28.3296 12.9785C28.3296 12.8092 28.3296 12.6188 28.3296 12.4072C28.3296 12.1872 28.3296 11.9756 28.3296 11.7725C28.3296 11.5693 28.3254 11.3916 28.3169 11.2393C28.3085 11.0785 28.2915 10.9769 28.2662 10.9346L28.1392 10.8076C28.0884 10.7653 28.0122 10.7061 27.9107 10.6299C27.8176 10.5452 27.6906 10.4437 27.5298 10.3252ZM28.4312 8.37012C28.6089 8.27702 28.7867 8.25163 28.9644 8.29395C29.1506 8.33626 29.2945 8.41667 29.396 8.53516C29.4976 8.65365 29.5315 8.79329 29.4976 8.9541C29.4722 9.11491 29.3368 9.27148 29.0913 9.42383C28.8459 9.56771 28.6301 9.61849 28.4439 9.57617C28.2577 9.53385 28.1265 9.44499 28.0503 9.30957C27.9742 9.17415 27.9615 9.01758 28.0122 8.83984C28.063 8.65365 28.2027 8.49707 28.4312 8.37012ZM32.0737 14.6035C32.133 14.3242 32.1753 14.0788 32.2007 13.8672C32.2345 13.6471 32.2599 13.4652 32.2769 13.3213C32.2938 13.152 32.3022 13.0081 32.3022 12.8896C32.2938 12.7458 32.2853 12.5765 32.2769 12.3818C32.2769 12.1787 32.2684 11.9798 32.2515 11.7852C32.243 11.582 32.2303 11.4043 32.2134 11.252C32.1965 11.0911 32.1753 10.9769 32.1499 10.9092C32.116 10.8415 32.0695 10.7695 32.0103 10.6934C31.8918 10.5495 31.7183 10.4098 31.4897 10.2744C31.6844 10.2321 31.8494 10.1982 31.9849 10.1729C32.1287 10.139 32.2472 10.1094 32.3403 10.084C32.4419 10.0501 32.5308 10.0205 32.6069 9.99512C32.6746 9.96973 32.755 9.94434 32.8481 9.91895C32.9243 9.90202 33.0174 9.88086 33.1274 9.85547C33.2375 9.83008 33.3644 9.80046 33.5083 9.7666L33.4702 10.9219C33.741 10.6003 34.0161 10.359 34.2954 10.1982C34.5747 10.0374 34.8371 9.92318 35.0825 9.85547C35.3618 9.77083 35.6369 9.72852 35.9077 9.72852C36.2463 9.74544 36.5594 9.80046 36.8472 9.89355C37.1434 9.98665 37.3973 10.0967 37.6089 10.2236C37.8289 10.3421 38.0067 10.4691 38.1421 10.6045C38.2775 10.7399 38.3579 10.8584 38.3833 10.96C38.4849 11.29 38.5103 11.5947 38.4595 11.874C38.4087 12.1449 38.341 12.4115 38.2563 12.6738C38.1802 12.9277 38.1125 13.1816 38.0532 13.4355C38.0024 13.6895 38.0236 13.9645 38.1167 14.2607C38.1506 14.3369 38.1844 14.4131 38.2183 14.4893C38.2521 14.557 38.2944 14.6247 38.3452 14.6924C38.396 14.7601 38.4552 14.8151 38.5229 14.8574C38.4299 14.849 38.3368 14.8447 38.2437 14.8447C38.1506 14.8363 38.0659 14.8278 37.9897 14.8193C37.8966 14.8109 37.812 14.8024 37.7358 14.7939C37.6512 14.7855 37.5369 14.7812 37.3931 14.7812C37.1476 14.7812 36.7668 14.7939 36.2505 14.8193C36.3267 14.6416 36.3859 14.4935 36.4282 14.375C36.479 14.248 36.5213 14.1465 36.5552 14.0703C36.589 13.9772 36.6144 13.9053 36.6313 13.8545C36.7329 13.609 36.7922 13.3298 36.8091 13.0166C36.8345 12.7035 36.8133 12.3861 36.7456 12.0645C36.7202 11.9544 36.6779 11.8232 36.6187 11.6709C36.5594 11.5186 36.479 11.3704 36.3774 11.2266C36.2843 11.0827 36.1701 10.96 36.0347 10.8584C35.9077 10.7568 35.7596 10.6976 35.5903 10.6807C35.4211 10.6637 35.2306 10.7061 35.019 10.8076C34.8159 10.9092 34.5959 11.0954 34.3589 11.3662C34.1812 11.5947 34.0415 11.874 33.9399 12.2041C33.8468 12.4834 33.7834 12.8346 33.7495 13.2578C33.7157 13.6725 33.7664 14.1592 33.9019 14.7178C33.7834 14.7008 33.6733 14.6924 33.5718 14.6924C33.4702 14.6839 33.3856 14.6755 33.3179 14.667C33.2332 14.6585 33.1571 14.6501 33.0894 14.6416C33.0132 14.6416 32.9285 14.6374 32.8354 14.6289C32.7508 14.6289 32.645 14.6289 32.5181 14.6289C32.3911 14.6204 32.243 14.612 32.0737 14.6035ZM40.2104 6.84668C40.3035 6.889 40.4135 6.91862 40.5405 6.93555C40.6759 6.95247 40.8029 6.96094 40.9213 6.96094C41.0652 6.96094 41.2133 6.95671 41.3657 6.94824C41.518 6.93978 41.7042 6.92285 41.9243 6.89746C42.102 6.88053 42.3221 6.85938 42.5844 6.83398C42.8468 6.80859 43.1388 6.77474 43.4604 6.73242C43.3419 6.79167 43.2404 6.85514 43.1557 6.92285C43.0711 6.99056 42.9991 7.05827 42.9399 7.12598C42.8722 7.20215 42.8172 7.27832 42.7749 7.35449C42.7156 7.45605 42.6352 7.63379 42.5337 7.8877C42.4406 8.13314 42.3432 8.4082 42.2417 8.71289C42.1486 9.01758 42.0639 9.3265 41.9878 9.63965C41.92 9.9528 41.882 10.2194 41.8735 10.4395C41.865 10.6257 41.8566 10.8372 41.8481 11.0742C41.8396 11.2773 41.8312 11.527 41.8227 11.8232C41.8143 12.1195 41.8058 12.458 41.7973 12.8389C42.4067 12.3988 42.8764 12.0475 43.2065 11.7852C43.5366 11.5143 43.7778 11.307 43.9301 11.1631C44.1079 11.0023 44.2137 10.888 44.2475 10.8203C44.2391 10.7695 44.2179 10.7145 44.184 10.6553C44.1417 10.6045 44.0825 10.5452 44.0063 10.4775C43.9301 10.4098 43.8159 10.3337 43.6635 10.249C43.8836 10.2744 44.074 10.2913 44.2348 10.2998C44.4041 10.3083 44.548 10.3167 44.6665 10.3252C44.8019 10.3337 44.9204 10.3337 45.0219 10.3252C45.132 10.3252 45.2674 10.321 45.4282 10.3125C45.7075 10.304 46.1391 10.2913 46.7231 10.2744C46.156 10.5706 45.7075 10.8245 45.3774 11.0361C45.1912 11.1546 45.0262 11.2646 44.8823 11.3662C44.7384 11.4762 44.5903 11.5905 44.4379 11.709C44.3025 11.8105 44.146 11.929 43.9682 12.0645C43.799 12.1999 43.6297 12.3438 43.4604 12.4961C43.7566 12.9785 44.0148 13.3763 44.2348 13.6895C44.4633 14.0026 44.6538 14.2565 44.8061 14.4512C44.9838 14.6797 45.1404 14.8617 45.2758 14.9971C45.4113 15.124 45.589 15.2679 45.809 15.4287C45.9952 15.5726 46.2365 15.7419 46.5327 15.9365C46.8374 16.1227 47.2055 16.3385 47.6372 16.584C47.4171 16.5417 47.2055 16.512 47.0024 16.4951C46.7993 16.4867 46.6258 16.4867 46.4819 16.4951C46.3042 16.5036 46.1434 16.5205 45.9995 16.5459C45.8471 16.5798 45.6779 16.6221 45.4917 16.6729C45.3309 16.7152 45.1404 16.7702 44.9204 16.8379C44.7088 16.9141 44.476 17.0114 44.2221 17.1299C44.3829 17.0114 44.5014 16.8971 44.5776 16.7871C44.6622 16.6855 44.7215 16.6009 44.7553 16.5332C44.7892 16.4486 44.8019 16.3766 44.7934 16.3174C44.7511 16.2327 44.6538 16.0592 44.5014 15.7969C44.3575 15.5768 44.146 15.2552 43.8667 14.832C43.5874 14.4089 43.1896 13.8333 42.6733 13.1055C42.6479 13.1139 42.6056 13.1393 42.5463 13.1816C42.4956 13.224 42.4194 13.2832 42.3178 13.3594C42.2163 13.4271 42.0809 13.5286 41.9116 13.6641L42.2544 15.8857C42.1782 15.9196 42.0935 15.9492 42.0004 15.9746C41.9158 16 41.8354 16.0212 41.7592 16.0381C41.6661 16.0635 41.573 16.0804 41.4799 16.0889C41.3868 16.0973 41.2768 16.1143 41.1499 16.1396C41.0398 16.1566 40.9087 16.1777 40.7563 16.2031C40.604 16.237 40.4305 16.2751 40.2358 16.3174C40.3458 16.2412 40.4347 16.1523 40.5024 16.0508C40.5701 15.9577 40.6251 15.8688 40.6674 15.7842C40.7098 15.6911 40.7478 15.5938 40.7817 15.4922C40.7986 15.4076 40.8156 15.1875 40.8325 14.832C40.8579 14.4766 40.879 14.0534 40.896 13.5625C40.9129 13.0632 40.9256 12.5299 40.934 11.9629C40.951 11.3958 40.9594 10.8626 40.9594 10.3633C40.9594 9.85547 40.9552 9.41536 40.9467 9.04297C40.9383 8.66211 40.9213 8.41667 40.896 8.30664C40.8536 8.17122 40.8029 8.02734 40.7436 7.875C40.6928 7.73958 40.6209 7.58724 40.5278 7.41797C40.4432 7.24023 40.3374 7.0498 40.2104 6.84668ZM9.75156 26.8975C10.0224 26.9059 10.2594 26.9102 10.4625 26.9102C10.6656 26.9017 10.8307 26.8975 10.9576 26.8975H11.3258C11.4189 26.889 11.5331 26.8848 11.6686 26.8848C11.787 26.8848 11.9309 26.8848 12.1002 26.8848C12.2695 26.8848 12.4641 26.889 12.6842 26.8975C12.7519 27.1344 12.8281 27.3672 12.9127 27.5957C13.0058 27.8158 13.0862 28.0146 13.1539 28.1924C13.2385 28.404 13.3232 28.6029 13.4078 28.7891C13.4924 28.9753 13.594 29.1995 13.7125 29.4619C13.8141 29.682 13.9368 29.9528 14.0807 30.2744C14.2245 30.5876 14.3938 30.9473 14.5885 31.3535C14.6816 31.0911 14.7662 30.8499 14.8424 30.6299C14.927 30.4098 14.999 30.2194 15.0582 30.0586C15.1259 29.8724 15.1809 29.7031 15.2232 29.5508C15.2656 29.3984 15.3121 29.2122 15.3629 28.9922C15.4052 28.806 15.4518 28.5817 15.5025 28.3193C15.5618 28.057 15.621 27.7523 15.6803 27.4053C15.9257 27.4053 16.1458 27.4053 16.3404 27.4053C16.5351 27.4053 16.7044 27.401 16.8482 27.3926C17.009 27.3926 17.1529 27.3883 17.2799 27.3799C17.4153 27.3799 17.5973 27.3714 17.8258 27.3545C18.0204 27.3376 18.2786 27.3249 18.6002 27.3164C18.9303 27.2995 19.3365 27.2783 19.8189 27.2529C19.6412 27.3799 19.4973 27.5068 19.3873 27.6338C19.2857 27.7523 19.2053 27.8581 19.1461 27.9512C19.0784 28.0612 19.0361 28.167 19.0191 28.2686C19.0022 28.3532 18.9853 28.5479 18.9684 28.8525C18.9599 29.1572 18.9472 29.5212 18.9303 29.9443C18.9218 30.359 18.9133 30.8034 18.9049 31.2773C18.9049 31.7513 18.9091 32.1999 18.9176 32.623C18.926 33.0462 18.9387 33.4144 18.9557 33.7275C18.9811 34.0322 19.0149 34.2269 19.0572 34.3115C19.1165 34.4131 19.1969 34.5316 19.2984 34.667C19.3915 34.7855 19.51 34.9209 19.6539 35.0732C19.8062 35.2256 20.0051 35.3949 20.2506 35.5811C19.8613 35.598 19.5354 35.6107 19.273 35.6191C19.0191 35.6276 18.8076 35.6361 18.6383 35.6445C18.4436 35.653 18.287 35.6572 18.1686 35.6572C18.0416 35.6572 17.8681 35.6615 17.648 35.6699C17.4534 35.6784 17.1952 35.6911 16.8736 35.708C16.552 35.7165 16.1373 35.7334 15.6295 35.7588C15.748 35.6234 15.858 35.488 15.9596 35.3525C16.0611 35.2171 16.1458 35.0944 16.2135 34.9844C16.2981 34.8574 16.3701 34.7347 16.4293 34.6162C16.4885 34.4554 16.5351 34.1634 16.5689 33.7402C16.6028 33.3763 16.6282 32.8558 16.6451 32.1787C16.662 31.4932 16.662 30.5749 16.6451 29.4238C16.4843 29.6862 16.3404 29.9486 16.2135 30.2109C16.095 30.4648 15.9892 30.6976 15.8961 30.9092C15.7945 31.1546 15.7014 31.3916 15.6168 31.6201C15.5322 31.8571 15.4433 32.1195 15.3502 32.4072C15.2656 32.6527 15.164 32.9447 15.0455 33.2832C14.9355 33.6217 14.8085 33.9941 14.6646 34.4004L14.1822 34.4258C14.1145 34.0872 14.0468 33.7826 13.9791 33.5117C13.9114 33.2324 13.8437 32.9954 13.776 32.8008C13.6998 32.5723 13.6236 32.3691 13.5475 32.1914C13.4628 32.0137 13.3697 31.8148 13.2682 31.5947C13.1751 31.4085 13.0608 31.1885 12.9254 30.9346C12.7984 30.6807 12.6503 30.3971 12.4811 30.084C12.3964 30.9473 12.3456 31.6497 12.3287 32.1914C12.3118 32.7246 12.3118 33.1393 12.3287 33.4355C12.3456 33.791 12.371 34.0492 12.4049 34.21C12.4557 34.3538 12.5361 34.5146 12.6461 34.6924C12.7392 34.8447 12.8661 35.0267 13.027 35.2383C13.1962 35.4414 13.412 35.6699 13.6744 35.9238C13.4882 35.9238 13.2936 35.9238 13.0904 35.9238C12.8873 35.9238 12.7011 35.9281 12.5318 35.9365C12.3287 35.945 12.1298 35.9492 11.9352 35.9492C11.732 35.9577 11.4951 35.9704 11.2242 35.9873C10.9872 36.0042 10.7037 36.0212 10.3736 36.0381C10.0436 36.055 9.66269 36.0846 9.23105 36.127C9.41725 36.0085 9.5696 35.8942 9.68809 35.7842C9.80658 35.6657 9.89967 35.5599 9.96738 35.4668C10.052 35.3568 10.1155 35.2467 10.1578 35.1367C10.1832 35.069 10.2044 34.9209 10.2213 34.6924C10.2467 34.4639 10.2678 34.1846 10.2848 33.8545C10.3102 33.5244 10.3271 33.1562 10.3355 32.75C10.3525 32.3438 10.3652 31.9333 10.3736 31.5186C10.3906 31.0954 10.4033 30.6849 10.4117 30.2871C10.4202 29.8809 10.4244 29.5169 10.4244 29.1953C10.4329 28.8652 10.4371 28.5902 10.4371 28.3701C10.4371 28.1501 10.4371 28.0104 10.4371 27.9512C10.4117 27.8242 10.3736 27.6973 10.3229 27.5703C10.2805 27.4603 10.2128 27.346 10.1197 27.2275C10.0266 27.109 9.90391 26.999 9.75156 26.8975ZM24.566 30.3125C24.786 30.3125 25.0145 30.3548 25.2515 30.4395C25.4885 30.5156 25.717 30.6172 25.9371 30.7441C26.1571 30.8626 26.356 30.9938 26.5337 31.1377C26.7199 31.2731 26.8723 31.4043 26.9908 31.5312C27.2024 31.7598 27.3462 32.0687 27.4224 32.458C27.5071 32.8389 27.524 33.2324 27.4732 33.6387C27.4224 34.0365 27.3039 34.4131 27.1177 34.7686C26.9315 35.124 26.6734 35.3864 26.3433 35.5557C26.1063 35.6742 25.8736 35.7673 25.6451 35.835C25.4166 35.9027 25.1965 35.9535 24.9849 35.9873C24.7733 36.0212 24.5744 36.0381 24.3882 36.0381C24.202 36.0381 24.0412 36.0339 23.9058 36.0254C23.6519 36.0085 23.3853 35.9196 23.106 35.7588C22.8352 35.598 22.577 35.3991 22.3316 35.1621C22.0946 34.9251 21.8915 34.667 21.7222 34.3877C21.553 34.0999 21.4514 33.8291 21.4175 33.5752C21.3668 33.2282 21.3583 32.8643 21.3921 32.4834C21.426 32.1025 21.5487 31.7513 21.7603 31.4297C21.9804 31.1081 22.3104 30.8415 22.7505 30.6299C23.1991 30.4183 23.8043 30.3125 24.566 30.3125ZM24.147 35.2383C24.2401 35.2552 24.3671 35.234 24.5279 35.1748C24.6887 35.1071 24.8453 35.0013 24.9976 34.8574C25.1584 34.7135 25.2981 34.5316 25.4166 34.3115C25.5435 34.083 25.6197 33.8079 25.6451 33.4863C25.6705 33.1732 25.6705 32.8854 25.6451 32.623C25.6282 32.3607 25.5901 32.1322 25.5308 31.9375C25.4716 31.7344 25.4039 31.5693 25.3277 31.4424C25.2515 31.3154 25.1711 31.2266 25.0865 31.1758C24.9426 31.0996 24.7691 31.0404 24.566 30.998C24.3629 30.9473 24.1893 30.9557 24.0455 31.0234C23.9778 31.0573 23.8931 31.1292 23.7916 31.2393C23.69 31.3493 23.5884 31.4889 23.4869 31.6582C23.3853 31.819 23.2922 32.0052 23.2076 32.2168C23.1314 32.4284 23.0764 32.6484 23.0425 32.877C23.0087 33.1055 23.0002 33.3509 23.0171 33.6133C23.0425 33.8757 23.0976 34.1253 23.1822 34.3623C23.2668 34.5908 23.3853 34.7897 23.5377 34.959C23.6985 35.1198 23.9016 35.2129 24.147 35.2383ZM29.5161 34.6035C29.5754 34.3242 29.6177 34.0788 29.6431 33.8672C29.6769 33.6471 29.7023 33.4652 29.7193 33.3213C29.7362 33.152 29.7446 33.0081 29.7446 32.8896C29.7362 32.7458 29.7277 32.5765 29.7193 32.3818C29.7193 32.1787 29.7108 31.9798 29.6939 31.7852C29.6854 31.582 29.6727 31.4043 29.6558 31.252C29.6389 31.0911 29.6177 30.9769 29.5923 30.9092C29.5585 30.8415 29.5119 30.7695 29.4527 30.6934C29.3342 30.5495 29.1607 30.4098 28.9321 30.2744C29.1268 30.2321 29.2918 30.1982 29.4273 30.1729C29.5711 30.139 29.6896 30.1094 29.7827 30.084C29.8843 30.0501 29.9732 30.0205 30.0493 29.9951C30.117 29.9697 30.1974 29.9443 30.2905 29.9189C30.3667 29.902 30.4598 29.8809 30.5698 29.8555C30.6799 29.8301 30.8068 29.8005 30.9507 29.7666L30.9126 30.9219C31.1835 30.6003 31.4585 30.359 31.7378 30.1982C32.0171 30.0374 32.2795 29.9232 32.5249 29.8555C32.8042 29.7708 33.0793 29.7285 33.3501 29.7285C33.6887 29.7454 34.0018 29.8005 34.2896 29.8936C34.5858 29.9867 34.8397 30.0967 35.0513 30.2236C35.2713 30.3421 35.4491 30.4691 35.5845 30.6045C35.7199 30.7399 35.8003 30.8584 35.8257 30.96C35.9273 31.29 35.9527 31.5947 35.9019 31.874C35.8511 32.1449 35.7834 32.4115 35.6987 32.6738C35.6226 32.9277 35.5549 33.1816 35.4956 33.4355C35.4448 33.6895 35.466 33.9645 35.5591 34.2607C35.593 34.3369 35.6268 34.4131 35.6607 34.4893C35.6945 34.557 35.7368 34.6247 35.7876 34.6924C35.8384 34.7601 35.8976 34.8151 35.9654 34.8574C35.8723 34.849 35.7792 34.8447 35.6861 34.8447C35.593 34.8363 35.5083 34.8278 35.4321 34.8193C35.339 34.8109 35.2544 34.8024 35.1782 34.7939C35.0936 34.7855 34.9793 34.7812 34.8355 34.7812C34.59 34.7812 34.2092 34.7939 33.6929 34.8193C33.7691 34.6416 33.8283 34.4935 33.8706 34.375C33.9214 34.248 33.9637 34.1465 33.9976 34.0703C34.0314 33.9772 34.0568 33.9053 34.0737 33.8545C34.1753 33.609 34.2346 33.3298 34.2515 33.0166C34.2769 32.7035 34.2557 32.3861 34.188 32.0645C34.1626 31.9544 34.1203 31.8232 34.0611 31.6709C34.0018 31.5186 33.9214 31.3704 33.8198 31.2266C33.7267 31.0827 33.6125 30.96 33.4771 30.8584C33.3501 30.7568 33.202 30.6976 33.0327 30.6807C32.8635 30.6637 32.673 30.7061 32.4614 30.8076C32.2583 30.9092 32.0383 31.0954 31.8013 31.3662C31.6236 31.5947 31.4839 31.874 31.3823 32.2041C31.2892 32.4834 31.2258 32.8346 31.1919 33.2578C31.1581 33.6725 31.2088 34.1592 31.3443 34.7178C31.2258 34.7008 31.1157 34.6924 31.0142 34.6924C30.9126 34.6839 30.828 34.6755 30.7603 34.667C30.6756 34.6585 30.5995 34.6501 30.5318 34.6416C30.4556 34.6416 30.371 34.6374 30.2779 34.6289C30.1932 34.6289 30.0874 34.6289 29.9605 34.6289C29.8335 34.6204 29.6854 34.612 29.5161 34.6035ZM37.6528 26.8467C37.7459 26.889 37.8559 26.9186 37.9829 26.9355C38.1183 26.9525 38.2453 26.9609 38.3637 26.9609C38.5076 26.9609 38.6557 26.9567 38.8081 26.9482C38.9604 26.9398 39.1466 26.9229 39.3667 26.8975C39.5444 26.8805 39.7645 26.8594 40.0268 26.834C40.2892 26.8086 40.5812 26.7747 40.9028 26.7324C40.7843 26.7917 40.6828 26.8551 40.5981 26.9229C40.5135 26.9906 40.4415 27.0583 40.3823 27.126C40.3146 27.2021 40.2596 27.2783 40.2173 27.3545C40.158 27.4561 40.0776 27.6338 39.9761 27.8877C39.883 28.1331 39.7856 28.4082 39.6841 28.7129C39.591 29.0176 39.5063 29.3265 39.4302 29.6396C39.3624 29.9528 39.3244 30.2194 39.3159 30.4395C39.3074 30.6257 39.299 30.8372 39.2905 31.0742C39.282 31.2773 39.2736 31.527 39.2651 31.8232C39.2567 32.1195 39.2482 32.458 39.2397 32.8389C39.8491 32.3988 40.3188 32.0475 40.6489 31.7852C40.979 31.5143 41.2202 31.307 41.3725 31.1631C41.5503 31.0023 41.6561 30.888 41.6899 30.8203C41.6815 30.7695 41.6603 30.7145 41.6264 30.6553C41.5841 30.6045 41.5249 30.5452 41.4487 30.4775C41.3725 30.4098 41.2583 30.3337 41.1059 30.249C41.326 30.2744 41.5164 30.2913 41.6772 30.2998C41.8465 30.3083 41.9904 30.3167 42.1089 30.3252C42.2443 30.3337 42.3628 30.3337 42.4643 30.3252C42.5744 30.3252 42.7098 30.321 42.8706 30.3125C43.1499 30.304 43.5815 30.2913 44.1655 30.2744C43.5984 30.5706 43.1499 30.8245 42.8198 31.0361C42.6336 31.1546 42.4686 31.2646 42.3247 31.3662C42.1808 31.4762 42.0327 31.5905 41.8804 31.709C41.7449 31.8105 41.5884 31.929 41.4106 32.0645C41.2414 32.1999 41.0721 32.3438 40.9028 32.4961C41.199 32.9785 41.4572 33.3763 41.6772 33.6895C41.9057 34.0026 42.0962 34.2565 42.2485 34.4512C42.4262 34.6797 42.5828 34.8617 42.7182 34.9971C42.8537 35.124 43.0314 35.2679 43.2514 35.4287C43.4376 35.5726 43.6789 35.7419 43.9751 35.9365C44.2798 36.1227 44.6479 36.3385 45.0796 36.584C44.8595 36.5417 44.6479 36.512 44.4448 36.4951C44.2417 36.4867 44.0682 36.4867 43.9243 36.4951C43.7466 36.5036 43.5858 36.5205 43.4419 36.5459C43.2895 36.5798 43.1203 36.6221 42.9341 36.6729C42.7733 36.7152 42.5828 36.7702 42.3628 36.8379C42.1512 36.9141 41.9184 37.0114 41.6645 37.1299C41.8253 37.0114 41.9438 36.8971 42.02 36.7871C42.1046 36.6855 42.1639 36.6009 42.1977 36.5332C42.2316 36.4486 42.2443 36.3766 42.2358 36.3174C42.1935 36.2327 42.0962 36.0592 41.9438 35.7969C41.7999 35.5768 41.5884 35.2552 41.3091 34.832C41.0298 34.4089 40.632 33.8333 40.1157 33.1055C40.0903 33.1139 40.048 33.1393 39.9887 33.1816C39.938 33.224 39.8618 33.2832 39.7602 33.3594C39.6587 33.4271 39.5233 33.5286 39.354 33.6641L39.6968 35.8857C39.6206 35.9196 39.5359 35.9492 39.4429 35.9746C39.3582 36 39.2778 36.0212 39.2016 36.0381C39.1085 36.0635 39.0154 36.0804 38.9223 36.0889C38.8292 36.0973 38.7192 36.1143 38.5923 36.1396C38.4822 36.1566 38.3511 36.1777 38.1987 36.2031C38.0464 36.237 37.8729 36.2751 37.6782 36.3174C37.7882 36.2412 37.8771 36.1523 37.9448 36.0508C38.0125 35.9577 38.0675 35.8688 38.1098 35.7842C38.1522 35.6911 38.1902 35.5938 38.2241 35.4922C38.241 35.4076 38.258 35.1875 38.2749 34.832C38.3003 34.4766 38.3214 34.0534 38.3384 33.5625C38.3553 33.0632 38.368 32.5299 38.3764 31.9629C38.3934 31.3958 38.4018 30.8626 38.4018 30.3633C38.4018 29.8555 38.3976 29.4154 38.3891 29.043C38.3807 28.6621 38.3637 28.4167 38.3384 28.3066C38.296 28.1712 38.2453 28.0273 38.186 27.875C38.1352 27.7396 38.0633 27.5872 37.9702 27.418C37.8856 27.2402 37.7798 27.0498 37.6528 26.8467ZM48.0493 33.9561C48.2862 33.9561 48.5063 33.9307 48.7094 33.8799C48.8787 33.8376 49.0395 33.7699 49.1918 33.6768C49.3526 33.5752 49.4584 33.4271 49.5092 33.2324C49.6785 33.2663 49.8224 33.2959 49.9409 33.3213C50.0593 33.3382 50.1609 33.3551 50.2455 33.3721C50.3386 33.3975 50.419 33.4144 50.4868 33.4229C50.5545 33.4398 50.6349 33.4567 50.728 33.4736C50.8126 33.4906 50.9142 33.5117 51.0327 33.5371C51.1596 33.554 51.3077 33.5794 51.477 33.6133C51.35 33.5964 51.2189 33.609 51.0834 33.6514C50.9565 33.6937 50.8338 33.7402 50.7153 33.791C50.5799 33.8503 50.4529 33.9222 50.3344 34.0068C50.2582 34.0576 50.1694 34.1338 50.0678 34.2354C49.9747 34.3369 49.8393 34.4342 49.6616 34.5273C49.4838 34.6204 49.2468 34.7008 48.9506 34.7686C48.6629 34.8278 48.2905 34.849 47.8334 34.832C47.2833 34.8151 46.822 34.7178 46.4496 34.54C46.0773 34.3538 45.7768 34.1296 45.5483 33.8672C45.3198 33.5964 45.1547 33.3044 45.0532 32.9912C44.9516 32.6781 44.8966 32.3861 44.8881 32.1152C44.8797 31.8444 44.9601 31.5609 45.1293 31.2646C45.2986 30.9684 45.5356 30.6976 45.8403 30.4521C46.1534 30.2067 46.53 30.0078 46.9702 29.8555C47.4103 29.6947 47.8927 29.6143 48.4174 29.6143C48.7221 29.6143 49.0014 29.6523 49.2553 29.7285C49.5177 29.7962 49.7547 29.8893 49.9662 30.0078C50.1863 30.1263 50.3767 30.2617 50.5375 30.4141C50.6983 30.5579 50.8338 30.7061 50.9438 30.8584C51.0538 31.0192 51.1469 31.1885 51.2231 31.3662C51.2908 31.5186 51.3458 31.6921 51.3881 31.8867C51.4304 32.0814 51.4431 32.2803 51.4262 32.4834C50.783 32.5003 50.2625 32.513 49.8647 32.5215C49.4754 32.5299 49.1707 32.5342 48.9506 32.5342H48.3793H47.9477C47.7953 32.5342 47.5965 32.5384 47.351 32.5469C47.1056 32.5553 46.8051 32.568 46.4496 32.585C46.492 32.9235 46.5978 33.1859 46.767 33.3721C46.9448 33.5498 47.131 33.6852 47.3256 33.7783C47.5457 33.8799 47.7869 33.9391 48.0493 33.9561ZM46.9067 31.6709C47.1775 31.6878 47.4018 31.7005 47.5795 31.709C47.7657 31.7174 47.9181 31.7259 48.0366 31.7344C48.1635 31.7428 48.2651 31.7471 48.3412 31.7471H48.6586C48.8702 31.7471 49.2638 31.7344 49.8393 31.709C49.8139 31.3366 49.7335 31.0531 49.5981 30.8584C49.4711 30.6637 49.3357 30.5199 49.1918 30.4268C49.0226 30.3252 48.8364 30.266 48.6332 30.249C48.0831 30.2575 47.6726 30.3717 47.4018 30.5918C47.1394 30.8118 46.9744 31.1715 46.9067 31.6709ZM52.3266 29.5127C52.4958 29.5381 52.6482 29.5592 52.7836 29.5762C52.9105 29.5846 53.0248 29.5931 53.1264 29.6016C53.2364 29.61 53.3422 29.6143 53.4437 29.6143C53.5368 29.6143 53.6553 29.61 53.7992 29.6016C53.9177 29.5931 54.0701 29.5846 54.2562 29.5762C54.4509 29.5592 54.6794 29.5381 54.9418 29.5127C54.9249 29.5465 54.891 29.6523 54.8402 29.8301C54.7895 29.9993 54.7387 30.2109 54.6879 30.4648C54.6371 30.7103 54.5906 30.9854 54.5482 31.29C54.5144 31.5863 54.4975 31.8825 54.4975 32.1787C54.5059 32.4665 54.544 32.7415 54.6117 33.0039C54.6794 33.2578 54.7895 33.4652 54.9418 33.626C55.2634 33.9561 55.5469 34.1549 55.7924 34.2227C56.0463 34.2904 56.2663 34.2819 56.4525 34.1973C56.6387 34.1126 56.7911 33.9857 56.9096 33.8164C57.0281 33.6471 57.1127 33.4906 57.1635 33.3467C57.2904 32.9574 57.3666 32.5469 57.392 32.1152C57.4089 31.7428 57.3793 31.3281 57.3031 30.8711C57.227 30.4141 57.045 29.9486 56.7572 29.4746C56.9773 29.4915 57.1677 29.5042 57.3285 29.5127C57.4893 29.5212 57.629 29.5296 57.7475 29.5381C57.8829 29.5465 58.0014 29.555 58.1029 29.5635C58.196 29.5719 58.3061 29.5719 58.433 29.5635C58.543 29.5635 58.6742 29.5592 58.8266 29.5508C58.9874 29.5339 59.1651 29.5169 59.3598 29.5C59.3936 30.3294 59.4232 31.07 59.4486 31.7217C59.474 32.3649 59.4909 32.9362 59.4994 33.4355C59.5163 33.9264 59.5248 34.3538 59.5248 34.7178C59.5248 35.0732 59.5248 35.3737 59.5248 35.6191C59.5163 36.2031 59.4909 36.5882 59.4486 36.7744C59.3809 37.0368 59.2582 37.2992 59.0805 37.5615C58.9112 37.8239 58.6954 38.0566 58.433 38.2598C58.1706 38.4714 57.8659 38.6322 57.5189 38.7422C57.1804 38.8607 56.808 38.903 56.4018 38.8691C56.004 38.8353 55.6866 38.7803 55.4496 38.7041C55.2211 38.6364 55.0391 38.556 54.9037 38.4629C54.7768 38.3698 54.6837 38.2725 54.6244 38.1709C54.5736 38.0693 54.5355 37.9635 54.5102 37.8535C54.4848 37.752 54.4594 37.6546 54.434 37.5615C54.4086 37.4684 54.3578 37.388 54.2816 37.3203C54.1885 37.2441 54.0912 37.168 53.9896 37.0918C53.8965 37.0241 53.795 36.9564 53.685 36.8887C53.5834 36.821 53.4818 36.766 53.3803 36.7236L56.0844 36.5713C56.0082 36.6729 55.9532 36.766 55.9193 36.8506C55.8855 36.9352 55.8643 37.0072 55.8559 37.0664C55.8474 37.1426 55.8516 37.2061 55.8686 37.2568C55.9024 37.3584 55.9617 37.4684 56.0463 37.5869C56.1394 37.7139 56.2579 37.8112 56.4018 37.8789C56.5456 37.9551 56.7149 37.9805 56.9096 37.9551C57.1127 37.9297 57.3412 37.8239 57.5951 37.6377C57.8067 37.4769 57.9844 37.2188 58.1283 36.8633C58.2468 36.5586 58.3399 36.1312 58.4076 35.5811C58.4753 35.0309 58.4626 34.3073 58.3695 33.4102C58.2172 33.9349 58.0098 34.3369 57.7475 34.6162C57.4851 34.8955 57.2227 35.0986 56.9604 35.2256C56.6557 35.3779 56.3383 35.4583 56.0082 35.4668C55.5681 35.4499 55.1915 35.3949 54.8783 35.3018C54.5652 35.2002 54.307 35.0648 54.1039 34.8955C53.9008 34.7262 53.74 34.5273 53.6215 34.2988C53.5115 34.0618 53.4311 33.7995 53.3803 33.5117C53.3295 33.224 53.3041 32.9362 53.3041 32.6484C53.3041 32.3522 53.3041 32.0771 53.3041 31.8232C53.3126 31.5693 53.3168 31.3408 53.3168 31.1377C53.3168 30.9261 53.2956 30.7568 53.2533 30.6299C53.2025 30.5029 53.1348 30.376 53.0502 30.249C52.9825 30.139 52.8894 30.0205 52.7709 29.8936C52.6439 29.7581 52.4958 29.6312 52.3266 29.5127Z" fill="black"/>
</svg>
