<svg width="794" height="485" viewBox="0 0 794 485" fill="none" xmlns="http://www.w3.org/2000/svg">
<path d="M696.963 360.5C719.253 354.569 696.436 363.389 706.625 303.6C716.771 244.067 948.435 203.458 613.116 71.0783C527.487 37.2727 507.102 78.5014 370 19.5C355.848 19.5 137.649 -9.6814 130 3.37685C126 10.206 126.69 67.9263 109 87.5C91.664 94.2223 33.5834 133.331 22.545 139.5C8.74695 147.211 0 256.714 0 256.714C13.8532 256.714 8.08781 341.577 89.5359 341.577C126.932 341.577 148.036 418.893 156.527 432.536C165.018 446.178 302.103 449.549 302.103 478.015C302.103 498.175 542.369 472.088 529.161 428.015C488.175 291.25 635.403 385.61 696.963 360.5Z" fill="url(#paint0_linear_46_1765)" fill-opacity="0.18"/>
<defs>
<linearGradient id="paint0_linear_46_1765" x1="174.746" y1="2.99994" x2="365.698" y2="504.909" gradientUnits="userSpaceOnUse">
<stop offset="0.165" stop-color="#F99DBC" stop-opacity="0.34"/>
<stop offset="0.735" stop-color="#E084A3"/>
</linearGradient>
</defs>
</svg>
